<?xml version="1.0"?>
<svg xmlns="http://www.w3.org/2000/svg" viewBox="0 0 80 80">
    <path d="M 17 9 L 17 12 L 15 12 L 15 15 C 15 16.256622 15.893306 17.14058 17 17.583984 L 17 52.416016 C 15.893306 52.85942 15 53.743378 15 55 L 15 71 L 31 71 L 39 71 L 41 71 L 49 71 L 65 71 L 65 55 C 65 53.743378 64.106694 52.85942 63 52.416016 L 63 17.583984 C 64.106797 17.140461 65 16.256232 65 15 L 65 12 L 63 12 L 63 9 L 17 9 z M 19 11 L 61 11 L 61 14 L 63 14 L 63 15 C 63 15.563541 62.564427 16 62 16 L 61 16 L 61 54 L 62 54 C 62.56503 54 63 54.43497 63 55 L 63 69 L 49 69 L 49 57 L 41 57 L 39 57 L 31 57 L 31 58 L 31 69 L 17 69 L 17 55 C 17 54.43497 17.43497 54 18 54 L 19 54 L 19 16 L 18 16 C 17.43497 16 17 15.56503 17 15 L 17 14 L 19 14 L 19 11 z M 22 16 A 1 1 0 0 0 21 17 A 1 1 0 0 0 22 18 A 1 1 0 0 0 23 17 A 1 1 0 0 0 22 16 z M 26 16 A 1 1 0 0 0 25 17 A 1 1 0 0 0 26 18 A 1 1 0 0 0 27 17 A 1 1 0 0 0 26 16 z M 30 16 A 1 1 0 0 0 29 17 A 1 1 0 0 0 30 18 A 1 1 0 0 0 31 17 A 1 1 0 0 0 30 16 z M 34 16 A 1 1 0 0 0 33 17 A 1 1 0 0 0 34 18 A 1 1 0 0 0 35 17 A 1 1 0 0 0 34 16 z M 38 16 A 1 1 0 0 0 37 17 A 1 1 0 0 0 38 18 A 1 1 0 0 0 39 17 A 1 1 0 0 0 38 16 z M 42 16 A 1 1 0 0 0 41 17 A 1 1 0 0 0 42 18 A 1 1 0 0 0 43 17 A 1 1 0 0 0 42 16 z M 46 16 A 1 1 0 0 0 45 17 A 1 1 0 0 0 46 18 A 1 1 0 0 0 47 17 A 1 1 0 0 0 46 16 z M 50 16 A 1 1 0 0 0 49 17 A 1 1 0 0 0 50 18 A 1 1 0 0 0 51 17 A 1 1 0 0 0 50 16 z M 54 16 A 1 1 0 0 0 53 17 A 1 1 0 0 0 54 18 A 1 1 0 0 0 55 17 A 1 1 0 0 0 54 16 z M 58 16 A 1 1 0 0 0 57 17 A 1 1 0 0 0 58 18 A 1 1 0 0 0 59 17 A 1 1 0 0 0 58 16 z M 22 22 L 22 23 L 22 28 L 28 28 L 28 22 L 22 22 z M 32 22 L 32 23 L 32 28 L 38 28 L 38 22 L 32 22 z M 42 22 L 42 23 L 42 28 L 48 28 L 48 22 L 42 22 z M 52 22 L 52 23 L 52 28 L 58 28 L 58 22 L 52 22 z M 24 24 L 26 24 L 26 26 L 24 26 L 24 24 z M 34 24 L 36 24 L 36 26 L 34 26 L 34 24 z M 44 24 L 46 24 L 46 26 L 44 26 L 44 24 z M 54 24 L 56 24 L 56 26 L 54 26 L 54 24 z M 22 32 L 22 33 L 22 38 L 28 38 L 28 32 L 22 32 z M 32 32 L 32 33 L 32 38 L 38 38 L 38 32 L 32 32 z M 42 32 L 42 33 L 42 38 L 48 38 L 48 32 L 42 32 z M 52 32 L 52 33 L 52 38 L 58 38 L 58 32 L 52 32 z M 24 34 L 26 34 L 26 36 L 24 36 L 24 34 z M 34 34 L 36 34 L 36 36 L 34 36 L 34 34 z M 44 34 L 46 34 L 46 36 L 44 36 L 44 34 z M 54 34 L 56 34 L 56 36 L 54 36 L 54 34 z M 22 42 L 22 43 L 22 48 L 28 48 L 28 42 L 22 42 z M 32 42 L 32 43 L 32 48 L 38 48 L 38 42 L 32 42 z M 42 42 L 42 43 L 42 48 L 48 48 L 48 42 L 42 42 z M 52 42 L 52 43 L 52 48 L 58 48 L 58 42 L 52 42 z M 24 44 L 26 44 L 26 46 L 24 46 L 24 44 z M 34 44 L 36 44 L 36 46 L 34 46 L 34 44 z M 44 44 L 46 44 L 46 46 L 44 46 L 44 44 z M 54 44 L 56 44 L 56 46 L 54 46 L 54 44 z M 22 52 A 1 1 0 0 0 21 53 A 1 1 0 0 0 22 54 A 1 1 0 0 0 23 53 A 1 1 0 0 0 22 52 z M 26 52 A 1 1 0 0 0 25 53 A 1 1 0 0 0 26 54 A 1 1 0 0 0 27 53 A 1 1 0 0 0 26 52 z M 30 52 A 1 1 0 0 0 29 53 A 1 1 0 0 0 30 54 A 1 1 0 0 0 31 53 A 1 1 0 0 0 30 52 z M 34 52 A 1 1 0 0 0 33 53 A 1 1 0 0 0 34 54 A 1 1 0 0 0 35 53 A 1 1 0 0 0 34 52 z M 38 52 A 1 1 0 0 0 37 53 A 1 1 0 0 0 38 54 A 1 1 0 0 0 39 53 A 1 1 0 0 0 38 52 z M 42 52 A 1 1 0 0 0 41 53 A 1 1 0 0 0 42 54 A 1 1 0 0 0 43 53 A 1 1 0 0 0 42 52 z M 46 52 A 1 1 0 0 0 45 53 A 1 1 0 0 0 46 54 A 1 1 0 0 0 47 53 A 1 1 0 0 0 46 52 z M 50 52 A 1 1 0 0 0 49 53 A 1 1 0 0 0 50 54 A 1 1 0 0 0 51 53 A 1 1 0 0 0 50 52 z M 54 52 A 1 1 0 0 0 53 53 A 1 1 0 0 0 54 54 A 1 1 0 0 0 55 53 A 1 1 0 0 0 54 52 z M 58 52 A 1 1 0 0 0 57 53 A 1 1 0 0 0 58 54 A 1 1 0 0 0 59 53 A 1 1 0 0 0 58 52 z M 22 57 L 22 58 L 22 65 L 28 65 L 28 57 L 22 57 z M 52 57 L 52 58 L 52 65 L 58 65 L 58 57 L 52 57 z M 24 59 L 26 59 L 26 63 L 24 63 L 24 59 z M 33 59 L 39 59 L 39 69 L 33 69 L 33 59 z M 41 59 L 47 59 L 47 69 L 41 69 L 41 59 z M 54 59 L 56 59 L 56 63 L 54 63 L 54 59 z"/>
</svg>
